<svg width="636" height="810" viewBox="0 0 636 810" fill="none" xmlns="http://www.w3.org/2000/svg">
<g clip-path="url(#clip0_8408_43)">
<path d="M606 0H30C13.4315 0 0 13.4315 0 30V780C0 796.569 13.4315 810 30 810H606C622.569 810 636 796.569 636 780V30C636 13.4315 622.569 0 606 0Z" fill="#E8F7FF"/>
<g filter="url(#filter0_dddddd_8408_43)">
<path d="M624.66 731.855L550.887 689.262C544.714 685.698 534.706 685.698 528.533 689.262L511.408 699.149C505.235 702.713 505.235 708.491 511.408 712.055L585.182 754.648C591.354 758.212 601.362 758.212 607.535 754.648L624.66 744.761C630.833 741.197 630.833 735.419 624.66 731.855Z" fill="white"/>
</g>
<path d="M511.408 712.055C507.819 709.983 506.317 707.162 506.901 704.463C507.322 706.406 508.824 708.286 511.408 709.777L585.181 752.371C591.354 755.935 601.362 755.935 607.535 752.371L624.66 742.483C627.244 740.992 628.746 739.112 629.167 737.169C629.751 739.868 628.249 742.689 624.66 744.761L607.535 754.648C601.362 758.212 591.354 758.212 585.181 754.648L511.408 712.055Z" fill="url(#paint0_linear_8408_43)"/>
<path d="M624.528 729.654L550.755 687.061C544.655 683.539 534.764 683.539 528.664 687.061L511.539 696.948C505.439 700.47 505.439 706.18 511.539 709.702L585.312 752.295C591.412 755.817 601.303 755.817 607.403 752.295L624.528 742.408C630.628 738.886 630.628 733.176 624.528 729.654Z" fill="url(#paint1_linear_8408_43)" fill-opacity="0.65" stroke="#F9F9F9" stroke-width="0.303663"/>
<path d="M555.499 707.965L545.79 710.862L545.001 710.406L547.578 706.732L541.277 708.256L540.509 707.813L545.527 702.207L546.737 702.906L543.549 706.386C543.43 706.511 543.311 706.629 543.192 706.738C543.079 706.851 542.967 706.957 542.855 707.054C543.03 706.993 543.22 706.932 543.423 706.872C543.626 706.811 543.851 706.75 544.096 706.689L548.746 705.536L549.766 706.125L547.725 708.785C547.613 708.939 547.504 709.074 547.399 709.192C547.301 709.305 547.206 709.408 547.115 709.501C547.263 709.441 547.431 709.376 547.62 709.307C547.817 709.242 548.044 709.171 548.304 709.094L554.279 707.26L555.499 707.965ZM557.678 711.215C558.175 711.502 558.459 711.783 558.53 712.059C558.6 712.334 558.516 712.601 558.277 712.86C558.046 713.124 557.72 713.377 557.299 713.62L553.933 715.563L552.849 714.938L556.142 713.037C556.408 712.883 556.612 712.725 556.752 712.563C556.892 712.401 556.938 712.237 556.889 712.071C556.839 711.905 556.654 711.741 556.331 711.579C556.051 711.417 555.742 711.308 555.405 711.251C555.069 711.194 554.739 711.186 554.417 711.227C554.094 711.267 553.813 711.356 553.575 711.494L550.23 713.425L549.146 712.8L556.931 708.306L558.014 708.931L554.879 710.741C555.307 710.688 555.781 710.698 556.299 710.771C556.825 710.84 557.285 710.988 557.678 711.215ZM566.069 716.193L560.546 719.381L559.452 718.75L560.304 718.258C559.905 718.294 559.438 718.276 558.905 718.203C558.372 718.13 557.889 717.968 557.454 717.717C556.991 717.45 556.689 717.134 556.549 716.77C556.416 716.41 556.454 716.039 556.665 715.659C556.875 715.278 557.261 714.926 557.822 714.602C558.383 714.278 558.993 714.059 559.652 713.946C560.318 713.829 560.974 713.818 561.619 713.916C562.272 714.009 562.857 714.205 563.376 714.505C563.762 714.727 564.014 714.97 564.133 715.233C564.26 715.501 564.298 715.75 564.249 715.98L564.975 715.561L566.069 716.193ZM558.706 717.286C559.042 717.481 559.417 717.604 559.831 717.657C560.252 717.705 560.673 717.689 561.093 717.608C561.521 717.523 561.914 717.377 562.272 717.171C562.622 716.968 562.868 716.746 563.008 716.503C563.148 716.26 563.173 716.019 563.081 715.78C562.997 715.537 562.787 715.318 562.45 715.124C562.128 714.938 561.76 714.818 561.346 714.766C560.932 714.713 560.515 714.727 560.094 714.808C559.673 714.889 559.284 715.033 558.926 715.24C558.569 715.446 558.316 715.673 558.169 715.92C558.029 716.163 558.001 716.406 558.085 716.649C558.176 716.887 558.383 717.1 558.706 717.286ZM563.826 721.275L562.743 720.65L567.214 718.069L566.067 717.407L567.119 716.799L568.265 717.461L569.675 716.647L570.759 717.273L569.349 718.087L570.632 718.828L569.58 719.435L568.297 718.694L563.826 721.275ZM573.56 722.194C573.56 721.967 573.497 721.745 573.371 721.526C573.251 721.312 573.087 721.144 572.876 721.022C572.729 720.937 572.564 720.862 572.382 720.797C572.207 720.737 572.021 720.706 571.824 720.706C571.635 720.702 571.449 720.753 571.267 720.858C571.021 721.008 570.955 721.176 571.067 721.362C571.186 721.552 571.369 721.767 571.614 722.006C571.824 722.216 572.007 722.435 572.161 722.662C572.322 722.885 572.378 723.111 572.329 723.342C572.294 723.573 572.077 723.804 571.677 724.034C571.333 724.233 570.941 724.346 570.499 724.375C570.064 724.407 569.626 724.373 569.184 724.271C568.756 724.17 568.374 724.022 568.037 723.828C567.638 723.597 567.312 723.328 567.059 723.02C566.821 722.712 566.74 722.378 566.817 722.018L568.185 722.079C568.157 722.314 568.199 722.536 568.311 722.747C568.437 722.957 568.676 723.164 569.026 723.366C569.159 723.443 569.314 723.508 569.489 723.561C569.671 723.609 569.857 723.632 570.047 723.628C570.25 723.623 570.439 723.571 570.615 723.47C570.783 723.372 570.86 723.267 570.846 723.154C570.846 723.04 570.79 722.919 570.678 722.789C570.573 722.656 570.443 722.516 570.289 722.37C570.071 722.148 569.875 721.917 569.699 721.678C569.538 721.439 569.472 721.198 569.5 720.955C569.542 720.712 569.759 720.478 570.152 720.251C570.481 720.06 570.853 719.951 571.267 719.923C571.695 719.894 572.122 719.931 572.55 720.032C572.985 720.129 573.374 720.277 573.718 720.475C574.047 720.666 574.335 720.913 574.58 721.216C574.826 721.52 574.921 721.834 574.864 722.158L573.56 722.194ZM576.469 728.574L577.605 727.117L574.523 725.337L571.998 725.993L570.841 725.325L581.055 722.72L582.212 723.388L577.678 729.273L576.469 728.574ZM578.068 724.42L576.037 724.949L578.289 726.248L579.225 725.04C579.379 724.845 579.551 724.641 579.74 724.426C579.937 724.208 580.133 723.989 580.329 723.77C579.937 723.884 579.544 723.997 579.151 724.11C578.765 724.228 578.404 724.331 578.068 724.42ZM587.2 728.284C587.691 728.567 588.007 728.891 588.147 729.256C588.301 729.62 588.277 729.991 588.073 730.367C587.87 730.744 587.488 731.094 586.927 731.418C586.373 731.738 585.766 731.958 585.107 732.08C584.455 732.197 583.813 732.215 583.182 732.134C582.551 732.053 581.997 731.875 581.52 731.6C581.127 731.373 580.854 731.118 580.7 730.835C580.552 730.555 580.496 730.3 580.531 730.069L577.481 731.831L576.387 731.199L584.234 726.668L585.328 727.3L584.518 727.768C584.911 727.727 585.36 727.747 585.864 727.828C586.369 727.909 586.815 728.061 587.2 728.284ZM586.054 728.776C585.724 728.586 585.349 728.462 584.928 728.405C584.514 728.353 584.094 728.365 583.666 728.442C583.252 728.519 582.866 728.66 582.509 728.867C582.158 729.069 581.913 729.292 581.772 729.535C581.639 729.782 581.615 730.027 581.699 730.27C581.797 730.513 582.011 730.729 582.341 730.92C582.67 731.11 583.042 731.232 583.456 731.284C583.876 731.333 584.297 731.317 584.718 731.236C585.146 731.159 585.535 731.019 585.885 730.817C586.243 730.61 586.485 730.385 586.611 730.142C586.752 729.899 586.776 729.659 586.685 729.42C586.594 729.181 586.383 728.966 586.054 728.776ZM593.837 732.115C594.327 732.399 594.643 732.723 594.783 733.087C594.938 733.451 594.913 733.822 594.71 734.198C594.506 734.575 594.124 734.925 593.563 735.249C593.009 735.569 592.402 735.79 591.743 735.911C591.091 736.029 590.449 736.047 589.818 735.966C589.187 735.885 588.633 735.707 588.156 735.431C587.763 735.205 587.49 734.95 587.336 734.666C587.188 734.387 587.132 734.132 587.167 733.901L584.117 735.662L583.023 735.03L590.87 730.5L591.964 731.131L591.154 731.599C591.547 731.559 591.996 731.579 592.501 731.66C593.006 731.741 593.451 731.893 593.837 732.115ZM592.69 732.607C592.36 732.417 591.985 732.293 591.564 732.237C591.151 732.184 590.73 732.196 590.302 732.273C589.888 732.35 589.503 732.492 589.145 732.698C588.794 732.901 588.549 733.123 588.409 733.366C588.275 733.613 588.251 733.858 588.335 734.101C588.433 734.344 588.647 734.561 588.977 734.751C589.306 734.941 589.678 735.063 590.092 735.116C590.512 735.164 590.933 735.148 591.354 735.067C591.782 734.99 592.171 734.85 592.522 734.648C592.879 734.441 593.121 734.217 593.247 733.974C593.388 733.731 593.412 733.49 593.321 733.251C593.23 733.012 593.02 732.798 592.69 732.607Z" fill="#333333"/>
<g filter="url(#filter1_dddddd_8408_43)">
<path d="M559.524 769.358L485.751 726.765C479.578 723.201 469.57 723.201 463.397 726.765L446.272 736.652C440.099 740.216 440.099 745.994 446.272 749.558L520.046 792.151C526.218 795.715 536.226 795.715 542.399 792.151L559.524 782.264C565.697 778.7 565.697 772.922 559.524 769.358Z" fill="white"/>
</g>
<path d="M446.272 749.558C442.683 747.486 441.181 744.665 441.765 741.966C442.186 743.909 443.688 745.788 446.272 747.28L520.046 789.873C526.218 793.437 536.226 793.437 542.399 789.873L559.524 779.986C562.108 778.494 563.61 776.615 564.031 774.672C564.616 777.371 563.114 780.191 559.524 782.263L542.399 792.151C536.226 795.715 526.218 795.715 520.046 792.151L446.272 749.558Z" fill="url(#paint2_linear_8408_43)"/>
<path d="M559.393 767.156L485.62 724.563C479.52 721.041 469.629 721.041 463.529 724.563L446.404 734.45C440.304 737.972 440.304 743.682 446.404 747.204L520.177 789.797C526.277 793.319 536.168 793.319 542.268 789.797L559.393 779.91C565.493 776.388 565.493 770.678 559.393 767.156Z" fill="url(#paint3_linear_8408_43)" fill-opacity="0.65" stroke="#F9F9F9" stroke-width="0.303663"/>
<path d="M493.64 747.359L498.279 750.038L497.185 750.669L493.682 748.647L491.736 749.77L494.661 751.459L493.567 752.09L490.642 750.402L488.507 751.635L492.01 753.657L490.916 754.289L486.277 751.611L493.64 747.359ZM500.891 753.562C501.346 753.825 501.606 754.096 501.669 754.375C501.739 754.651 501.655 754.926 501.417 755.201C501.69 755.157 502.009 755.139 502.374 755.147C502.746 755.151 503.117 755.191 503.489 755.268C503.861 755.345 504.19 755.467 504.478 755.633C504.955 755.908 505.221 756.183 505.277 756.459C505.34 756.73 505.249 756.997 505.004 757.26C504.772 757.523 504.443 757.779 504.015 758.026L500.701 759.939L499.607 759.307L502.858 757.43C503.264 757.196 503.517 756.961 503.615 756.726C503.713 756.491 503.548 756.25 503.121 756.003C502.714 755.768 502.248 755.649 501.722 755.645C501.21 755.641 500.771 755.744 500.407 755.955L497.104 757.862L496.01 757.23L499.281 755.341C499.674 755.114 499.912 754.88 499.996 754.637C500.081 754.394 499.93 754.161 499.544 753.938C499.278 753.784 498.98 753.681 498.65 753.628C498.32 753.576 497.998 753.572 497.682 753.616C497.374 753.657 497.1 753.746 496.862 753.884L493.538 755.803L492.444 755.171L497.966 751.983L499.06 752.614L498.177 753.124C498.597 753.076 499.057 753.082 499.555 753.143C500.067 753.203 500.512 753.343 500.891 753.562ZM512.818 760.557L507.296 763.746L506.202 763.114L507.054 762.622C506.654 762.659 506.188 762.641 505.655 762.568C505.122 762.495 504.638 762.333 504.203 762.082C503.74 761.815 503.439 761.499 503.298 761.134C503.165 760.774 503.204 760.404 503.414 760.023C503.625 759.642 504.01 759.29 504.571 758.966C505.132 758.642 505.742 758.424 506.402 758.31C507.068 758.193 507.724 758.183 508.369 758.28C509.021 758.373 509.606 758.569 510.125 758.869C510.511 759.092 510.764 759.335 510.883 759.598C511.009 759.865 511.048 760.114 510.999 760.345L511.724 759.926L512.818 760.557ZM505.455 761.651C505.792 761.845 506.167 761.968 506.58 762.021C507.001 762.07 507.422 762.054 507.843 761.973C508.271 761.888 508.663 761.742 509.021 761.535C509.372 761.333 509.617 761.11 509.757 760.867C509.898 760.624 509.922 760.383 509.831 760.144C509.747 759.902 509.536 759.683 509.2 759.489C508.877 759.302 508.509 759.183 508.095 759.13C507.681 759.078 507.264 759.092 506.843 759.173C506.423 759.254 506.033 759.397 505.676 759.604C505.318 759.81 505.066 760.037 504.918 760.284C504.778 760.527 504.75 760.77 504.834 761.013C504.925 761.252 505.132 761.464 505.455 761.651ZM516.256 761.158C516.011 761.016 515.891 760.874 515.898 760.732C515.905 760.591 516.011 760.461 516.214 760.344C516.389 760.243 516.607 760.186 516.866 760.174C517.126 760.162 517.378 760.226 517.624 760.368C517.869 760.51 517.988 760.651 517.981 760.793C517.974 760.935 517.869 761.064 517.666 761.182C517.49 761.283 517.273 761.34 517.014 761.352C516.754 761.364 516.502 761.299 516.256 761.158ZM510.092 765.36L509.008 764.735L514.531 761.546L515.614 762.172L510.092 765.36ZM511.736 766.31L519.52 761.815L520.604 762.441L512.82 766.935L511.736 766.31Z" fill="#333333"/>
<g opacity="0.5">
<path d="M304.184 603.082C304.184 603.082 297.137 671.082 347.364 727.471C397.59 783.86 475.272 802.738 537.934 819.704C600.596 836.67 654.061 810.601 668.783 757.909C683.505 705.218 637.333 679.624 619.551 612.712C601.769 545.8 606.852 526.004 556.549 476.95C506.246 427.897 416.299 433.762 361.899 489.59C307.499 545.418 304.184 603.082 304.184 603.082Z" fill="#0393E2"/>
<path opacity="0.7" d="M304.184 603.082C304.184 603.082 297.137 671.082 347.364 727.471C397.59 783.86 475.272 802.738 537.934 819.704C600.596 836.67 654.061 810.601 668.783 757.909C683.505 705.218 637.333 679.624 619.551 612.712C601.769 545.8 606.852 526.004 556.549 476.95C506.246 427.897 416.299 433.762 361.899 489.59C307.499 545.418 304.184 603.082 304.184 603.082Z" fill="white"/>
<path d="M381.712 483.682L488.642 658.374L618.573 535.286" stroke="#263238" stroke-linecap="round" stroke-linejoin="round"/>
<path d="M325.493 666.322L488.642 658.374L369.905 608.02" stroke="#263238" stroke-linecap="round" stroke-linejoin="round"/>
<path d="M514.83 462.993L490.555 662.488L639.458 692.034" stroke="#263238" stroke-linecap="round" stroke-linejoin="round"/>
<path d="M372.387 782.704L488.642 658.374L609.24 749.758" stroke="#263238" stroke-linecap="round" stroke-linejoin="round"/>
<path d="M321.863 644.23C317.762 644.23 313.752 645.446 310.341 647.725C306.93 650.004 304.272 653.243 302.702 657.033C301.132 660.823 300.722 664.993 301.522 669.016C302.322 673.039 304.298 676.735 307.198 679.635C310.099 682.536 313.794 684.511 317.817 685.311C321.84 686.112 326.011 685.701 329.8 684.131C333.59 682.562 336.829 679.903 339.108 676.493C341.387 673.082 342.603 669.072 342.603 664.97C342.597 659.471 340.409 654.2 336.521 650.312C332.633 646.424 327.362 644.237 321.863 644.23Z" fill="#263238"/>
<path fill-rule="evenodd" clip-rule="evenodd" d="M334.562 664.435C334.351 661.45 333.023 658.655 330.843 656.605C328.663 654.556 325.791 653.403 322.799 653.376C319.807 653.349 316.915 654.451 314.698 656.461C312.482 658.471 311.104 661.242 310.839 664.222C310.839 664.392 310.839 664.562 310.839 664.741C310.837 666.887 311.425 668.992 312.539 670.827L310.397 677.142L316.976 675.051C318.778 676.036 320.805 676.537 322.858 676.506C324.912 676.475 326.922 675.914 328.694 674.876C330.467 673.838 331.94 672.359 332.971 670.583C334.002 668.807 334.556 666.794 334.579 664.741C334.571 664.639 334.571 664.537 334.562 664.435ZM322.662 674.635C320.711 674.636 318.802 674.066 317.171 672.994L313.338 674.218L314.587 670.538C313.349 668.856 312.682 666.821 312.683 664.732C312.683 664.411 312.7 664.091 312.734 663.772C312.95 661.264 314.103 658.931 315.965 657.238C317.826 655.544 320.259 654.616 322.775 654.639C325.291 654.661 327.706 655.633 329.537 657.359C331.368 659.086 332.48 661.439 332.65 663.95C332.65 664.205 332.65 664.46 332.65 664.724C332.639 667.357 331.585 669.879 329.72 671.737C327.855 673.596 325.33 674.641 322.696 674.643L322.662 674.635Z" fill="white"/>
<path fill-rule="evenodd" clip-rule="evenodd" d="M328.145 667.112C327.847 666.968 326.445 666.262 326.147 666.177C325.85 666.092 325.688 666.033 325.493 666.322C325.297 666.611 324.736 667.257 324.575 667.452C324.413 667.648 324.235 667.665 323.937 667.52C323.08 667.183 322.288 666.697 321.6 666.084C320.964 665.507 320.419 664.836 319.985 664.095C319.815 663.806 319.985 663.644 320.112 663.5C320.24 663.355 320.401 663.168 320.546 662.998L320.656 662.862C320.724 662.75 320.784 662.634 320.835 662.514C320.877 662.437 320.9 662.351 320.9 662.263C320.9 662.175 320.877 662.089 320.835 662.012C320.758 661.868 320.18 660.44 319.934 659.862C319.687 659.284 319.449 659.386 319.279 659.386C319.109 659.386 318.914 659.386 318.718 659.386C318.572 659.388 318.427 659.421 318.294 659.482C318.161 659.544 318.042 659.633 317.945 659.743C317.616 660.051 317.355 660.426 317.179 660.842C317.003 661.257 316.917 661.705 316.925 662.157C316.929 662.491 316.981 662.823 317.078 663.143C317.305 663.864 317.656 664.54 318.115 665.14C318.259 665.327 320.129 668.345 323.087 669.501C326.045 670.657 326.045 670.274 326.581 670.223C326.987 670.145 327.372 669.983 327.71 669.745C328.049 669.508 328.333 669.201 328.544 668.846C328.73 668.415 328.789 667.941 328.714 667.478C328.621 667.35 328.4 667.257 328.145 667.112Z" fill="white"/>
<path d="M376.85 459.644C371.421 459.754 366.251 461.988 362.451 465.866C358.65 469.745 356.521 474.958 356.521 480.388C356.521 485.819 358.65 491.032 362.451 494.911C366.251 498.789 371.421 501.023 376.85 501.133C379.609 501.189 382.352 500.693 384.918 499.676C387.484 498.658 389.821 497.139 391.792 495.208C393.763 493.276 395.329 490.97 396.399 488.425C397.468 485.881 398.018 483.148 398.018 480.388C398.018 477.628 397.468 474.896 396.399 472.351C395.329 469.807 393.763 467.501 391.792 465.569C389.821 463.637 387.484 462.118 384.918 461.101C382.352 460.084 379.609 459.588 376.85 459.644Z" fill="#263238"/>
<path d="M390.008 473.737C389.859 473.15 389.556 472.614 389.13 472.184C388.704 471.753 388.171 471.444 387.586 471.289C385.435 470.711 376.842 470.711 376.842 470.711C376.842 470.711 368.248 470.711 366.106 471.289C365.522 471.448 364.989 471.758 364.563 472.187C364.136 472.617 363.83 473.151 363.675 473.737C362.916 478.141 362.916 482.643 363.675 487.048C363.831 487.633 364.138 488.166 364.564 488.596C364.991 489.025 365.522 489.336 366.106 489.496C368.248 490.074 376.842 490.074 376.842 490.074C376.842 490.074 385.435 490.074 387.586 489.496C388.168 489.336 388.699 489.025 389.124 488.596C389.549 488.166 389.854 487.632 390.008 487.048C390.779 482.644 390.779 478.14 390.008 473.737Z" fill="white"/>
<path d="M374.036 484.481V476.304L381.219 480.392L374.036 484.481Z" fill="#263238"/>
<path d="M373.901 756.6C368.521 756.6 363.262 758.195 358.789 761.184C354.316 764.173 350.83 768.421 348.771 773.391C346.712 778.361 346.174 783.83 347.223 789.107C348.273 794.383 350.863 799.229 354.667 803.033C358.471 806.837 363.318 809.428 368.594 810.477C373.87 811.527 379.339 810.988 384.309 808.93C389.28 806.871 393.528 803.385 396.516 798.912C399.505 794.439 401.101 789.18 401.101 783.8C401.101 776.586 398.235 769.668 393.134 764.567C388.033 759.466 381.114 756.6 373.901 756.6Z" fill="#263238"/>
<path d="M369.319 801.242H376.357V783.622H381.262L381.789 777.723H376.357V774.323C376.357 772.929 376.629 772.385 377.981 772.385H381.789V766.256H376.918C371.682 766.256 369.319 768.568 369.319 772.98V777.68H365.656V783.63H369.319V801.242Z" fill="white"/>
<path d="M609.971 729.494C605.867 729.492 601.854 730.708 598.441 732.987C595.027 735.266 592.366 738.506 590.795 742.298C589.224 746.09 588.812 750.262 589.612 754.288C590.413 758.314 592.389 762.011 595.291 764.914C598.193 767.816 601.891 769.792 605.917 770.592C609.942 771.393 614.115 770.981 617.907 769.41C621.698 767.838 624.939 765.177 627.218 761.764C629.497 758.351 630.713 754.338 630.711 750.234C630.704 744.735 628.517 739.464 624.629 735.576C620.741 731.688 615.47 729.5 609.971 729.494Z" fill="#263238"/>
<path d="M609.971 740.331C613.201 740.331 613.584 740.331 614.859 740.399C615.625 740.409 616.384 740.55 617.103 740.816C617.624 741.013 618.096 741.32 618.488 741.717C618.89 742.107 619.198 742.583 619.389 743.111C619.66 743.828 619.801 744.588 619.806 745.355C619.865 746.63 619.882 747.055 619.882 750.234C619.882 753.413 619.882 753.846 619.806 755.121C619.801 755.888 619.66 756.648 619.389 757.365C619.2 757.891 618.892 758.365 618.488 758.751C618.099 759.152 617.626 759.463 617.103 759.66C616.384 759.925 615.625 760.066 614.859 760.077C613.584 760.136 613.201 760.145 609.971 760.145C606.741 760.145 606.359 760.145 605.084 760.077C604.317 760.065 603.559 759.924 602.84 759.66C602.316 759.463 601.843 759.152 601.454 758.751C601.05 758.365 600.742 757.891 600.553 757.365C600.282 756.648 600.141 755.888 600.137 755.121C600.077 753.846 600.06 753.464 600.06 750.234C600.06 747.004 600.06 746.63 600.137 745.355C600.141 744.588 600.282 743.828 600.553 743.111C600.744 742.583 601.052 742.107 601.454 741.717C601.846 741.32 602.318 741.013 602.84 740.816C603.559 740.551 604.317 740.41 605.084 740.399C606.359 740.34 606.741 740.331 609.971 740.331ZM609.971 738.155C606.69 738.155 606.274 738.155 604.99 738.223C604.004 738.237 603.027 738.415 602.1 738.75C601.297 739.06 600.567 739.535 599.958 740.144C599.349 740.753 598.874 741.483 598.564 742.286C598.214 743.225 598.025 744.217 598.003 745.219C597.944 746.511 597.927 746.919 597.927 750.2C597.927 753.481 597.927 753.897 598.003 755.189C598.025 756.191 598.214 757.182 598.564 758.122C598.869 758.933 599.342 759.671 599.951 760.287C600.56 760.904 601.292 761.385 602.1 761.7C603.039 762.051 604.03 762.241 605.033 762.261C606.316 762.321 606.733 762.329 610.014 762.329C613.295 762.329 613.711 762.329 614.995 762.261C615.997 762.241 616.988 762.051 617.927 761.7C618.731 761.39 619.46 760.915 620.069 760.306C620.678 759.697 621.153 758.968 621.463 758.164C621.813 757.225 622.002 756.234 622.024 755.232C622.084 753.94 622.101 753.532 622.101 750.242C622.101 746.953 622.101 746.553 622.024 745.261C622.002 744.259 621.813 743.268 621.463 742.329C621.153 741.525 620.678 740.795 620.069 740.186C619.46 739.577 618.731 739.103 617.927 738.793C616.988 738.441 615.997 738.251 614.995 738.232C613.711 738.172 613.295 738.164 610.014 738.164" fill="white"/>
<path d="M609.971 744.029C608.741 744.027 607.539 744.39 606.516 745.072C605.493 745.754 604.695 746.725 604.224 747.86C603.752 748.996 603.628 750.246 603.868 751.452C604.107 752.658 604.699 753.766 605.569 754.636C606.438 755.505 607.546 756.097 608.752 756.337C609.958 756.576 611.208 756.452 612.344 755.981C613.48 755.51 614.45 754.712 615.132 753.689C615.814 752.666 616.178 751.463 616.176 750.234C616.176 748.588 615.522 747.01 614.359 745.846C613.195 744.682 611.617 744.029 609.971 744.029ZM609.971 754.229C609.174 754.229 608.395 753.992 607.733 753.55C607.07 753.107 606.554 752.478 606.249 751.741C605.944 751.005 605.864 750.195 606.019 749.414C606.175 748.632 606.559 747.914 607.122 747.351C607.686 746.787 608.403 746.403 609.185 746.248C609.967 746.093 610.777 746.172 611.513 746.477C612.249 746.782 612.878 747.299 613.321 747.961C613.764 748.624 614 749.403 614 750.2C614 751.268 613.576 752.293 612.82 753.049C612.064 753.804 611.04 754.229 609.971 754.229Z" fill="white"/>
<path d="M617.876 743.782C617.878 744.07 617.794 744.352 617.635 744.592C617.476 744.832 617.25 745.02 616.985 745.131C616.719 745.242 616.427 745.272 616.144 745.217C615.862 745.162 615.602 745.024 615.398 744.821C615.194 744.618 615.054 744.359 614.998 744.077C614.941 743.795 614.969 743.502 615.079 743.236C615.189 742.97 615.375 742.743 615.614 742.582C615.853 742.422 616.135 742.337 616.422 742.337C616.807 742.337 617.175 742.489 617.447 742.76C617.72 743.03 617.874 743.398 617.876 743.782Z" fill="white"/>
<path d="M617.553 564.194C609.212 564.194 601.213 560.88 595.315 554.982C589.416 549.084 586.103 541.085 586.103 532.744C586.103 524.403 589.416 516.403 595.315 510.505C601.213 504.607 609.212 501.294 617.553 501.294C625.894 501.294 633.893 504.607 639.792 510.505C645.69 516.403 649.003 524.403 649.003 532.744C649.003 541.085 645.69 549.084 639.792 554.982C633.893 560.88 625.894 564.194 617.553 564.194Z" fill="#263238" stroke="#263238" stroke-linecap="round" stroke-linejoin="round"/>
<path d="M600.808 543.293C603.95 545.31 607.606 546.381 611.34 546.378C624.09 546.378 631.306 535.6 630.89 525.936C632.221 524.958 633.372 523.756 634.29 522.383C633.036 522.938 631.707 523.302 630.346 523.462C631.779 522.603 632.851 521.253 633.363 519.663C632.017 520.473 630.542 521.048 629.003 521.363C627.967 520.259 626.597 519.527 625.104 519.281C623.611 519.035 622.078 519.289 620.744 520.003C619.409 520.716 618.347 521.85 617.723 523.229C617.098 524.607 616.946 526.153 617.29 527.627C614.558 527.492 611.885 526.784 609.445 525.548C607.005 524.312 604.853 522.576 603.128 520.453C602.25 521.965 601.981 523.756 602.375 525.459C602.77 527.163 603.799 528.653 605.253 529.625C604.164 529.591 603.098 529.3 602.142 528.775C602.13 530.371 602.672 531.922 603.677 533.162C604.682 534.403 606.086 535.255 607.651 535.575C606.642 535.851 605.582 535.888 604.557 535.685C604.993 537.052 605.847 538.248 606.998 539.104C608.149 539.961 609.539 540.436 610.974 540.462C608.091 542.71 604.437 543.727 600.808 543.293Z" fill="white"/>
<path d="M371.027 590.621C367.788 590.621 364.621 591.581 361.927 593.381C359.234 595.181 357.134 597.739 355.895 600.732C354.655 603.725 354.331 607.018 354.963 610.196C355.595 613.373 357.155 616.291 359.445 618.582C361.736 620.873 364.655 622.433 367.832 623.065C371.009 623.697 374.303 623.373 377.296 622.133C380.289 620.893 382.847 618.794 384.647 616.1C386.446 613.406 387.407 610.24 387.407 607C387.402 602.657 385.675 598.494 382.605 595.423C379.534 592.352 375.37 590.625 371.027 590.621Z" fill="#808080"/>
<path d="M366.25 602.708H362.646V614.344H366.25V602.708Z" fill="white"/>
<path d="M364.431 601.186C364.858 601.19 365.275 601.066 365.631 600.832C365.987 600.598 366.265 600.263 366.43 599.87C366.596 599.478 366.641 599.045 366.56 598.627C366.479 598.208 366.275 597.824 365.975 597.521C365.675 597.219 365.292 597.012 364.874 596.928C364.457 596.843 364.023 596.885 363.63 597.047C363.236 597.21 362.899 597.485 362.662 597.839C362.425 598.193 362.298 598.61 362.298 599.036C362.297 599.317 362.351 599.596 362.458 599.856C362.564 600.116 362.721 600.353 362.919 600.553C363.117 600.752 363.353 600.911 363.612 601.02C363.872 601.129 364.15 601.185 364.431 601.186Z" fill="white"/>
<path d="M372.013 608.241C372.013 606.601 372.761 605.632 374.206 605.632C375.651 605.632 376.161 606.567 376.161 608.241V614.344H379.748V607C379.748 603.889 377.98 602.376 375.498 602.376C374.798 602.367 374.106 602.54 373.492 602.878C372.879 603.216 372.363 603.708 371.996 604.306V602.75H368.537V614.387H371.996L372.013 608.241Z" fill="white"/>
<path d="M638.599 706.739C636.367 706.739 634.156 706.299 632.093 705.445C630.031 704.591 628.157 703.338 626.578 701.76C625 700.181 623.747 698.307 622.893 696.245C622.039 694.182 621.599 691.971 621.599 689.739C621.599 685.23 623.39 680.906 626.578 677.718C629.766 674.53 634.09 672.739 638.599 672.739C643.108 672.739 647.432 674.53 650.62 677.718C653.808 680.906 655.599 685.23 655.599 689.739C655.599 691.971 655.159 694.182 654.305 696.245C653.451 698.307 652.198 700.181 650.62 701.76C649.041 703.338 647.167 704.591 645.105 705.445C643.042 706.299 640.831 706.739 638.599 706.739Z" fill="#808080"/>
<path d="M636.1 696.182C636.59 696.09 637.053 695.886 637.452 695.587C637.793 695.33 638.081 695.01 638.302 694.644C638.66 694.077 638.846 693.419 638.837 692.748C638.853 692.132 638.691 691.524 638.37 690.997C638.042 690.501 637.557 690.13 636.992 689.943C637.338 689.783 637.647 689.554 637.902 689.272C638.289 688.769 638.484 688.146 638.454 687.512C638.47 686.862 638.276 686.225 637.902 685.693C637.526 685.251 637.05 684.905 636.513 684.684C635.976 684.464 635.395 684.376 634.816 684.427H629.053V696.327H634.4C634.97 696.339 635.54 696.29 636.1 696.182ZM631.425 686.492H634.017C634.495 686.478 634.971 686.541 635.428 686.679C635.639 686.769 635.814 686.924 635.929 687.122C636.044 687.319 636.092 687.549 636.066 687.776C636.087 687.979 636.053 688.183 635.968 688.369C635.883 688.554 635.749 688.713 635.582 688.83C635.196 689.039 634.761 689.139 634.324 689.119H631.425V686.492ZM631.425 694.278V691.099H634.358C634.763 691.082 635.168 691.148 635.548 691.295C635.792 691.403 635.997 691.585 636.134 691.815C636.271 692.044 636.334 692.311 636.313 692.578C636.344 692.877 636.286 693.178 636.145 693.443C636.004 693.708 635.787 693.925 635.522 694.066C635.14 694.223 634.728 694.296 634.315 694.278H631.425Z" fill="white"/>
<path d="M514.83 480.019C510.322 480.019 505.998 478.227 502.81 475.039C499.622 471.851 497.83 467.527 497.83 463.019C497.83 458.51 499.622 454.186 502.81 450.998C505.998 447.81 510.322 446.019 514.83 446.019C519.339 446.019 523.663 447.81 526.851 450.998C530.039 454.186 531.83 458.51 531.83 463.019C531.83 467.527 530.039 471.851 526.851 475.039C523.663 478.227 519.339 480.019 514.83 480.019Z" fill="#808080"/>
<path fill-rule="evenodd" clip-rule="evenodd" d="M524.699 467.991C524.499 467.883 524.284 467.805 524.062 467.762C523.013 467.403 522.098 466.737 521.435 465.849C521.041 465.372 520.726 464.835 520.5 464.26C520.449 464.155 520.422 464.04 520.422 463.924C520.422 463.807 520.449 463.693 520.5 463.588C520.737 463.313 521.051 463.115 521.401 463.019C521.843 462.89 522.256 462.676 522.617 462.39C522.692 462.327 522.753 462.249 522.795 462.16C522.8 462.135 522.8 462.109 522.795 462.084C522.838 461.98 522.838 461.864 522.795 461.761C522.7 461.583 522.551 461.441 522.37 461.353C522.261 461.287 522.139 461.247 522.012 461.236C521.886 461.224 521.758 461.241 521.639 461.285C521.43 461.366 521.214 461.429 520.993 461.472C520.75 461.528 520.497 461.528 520.254 461.472C520.254 461.472 520.254 461.378 520.254 461.31C520.254 460.86 520.254 460.401 520.254 459.925C520.3 459.188 520.283 458.448 520.203 457.715C519.935 456.459 519.192 455.357 518.129 454.638C517.372 454.119 516.493 453.808 515.579 453.737C515.273 453.737 514.975 453.737 514.669 453.737C513.575 453.69 512.494 453.981 511.572 454.572C510.65 455.162 509.933 456.022 509.518 457.035C509.227 457.898 509.134 458.816 509.246 459.721C509.298 460.308 509.312 460.899 509.289 461.489C509.007 461.537 508.72 461.537 508.439 461.489C508.235 461.489 508.014 461.37 507.767 461.302C507.653 461.281 507.537 461.284 507.424 461.311C507.311 461.337 507.205 461.386 507.113 461.455C507.013 461.507 506.928 461.583 506.866 461.677C506.803 461.77 506.765 461.878 506.755 461.99V462.041C506.783 462.183 506.861 462.31 506.977 462.398L507.206 462.568C507.639 462.816 508.098 463.016 508.575 463.163C508.713 463.208 508.839 463.284 508.945 463.383C509.051 463.483 509.133 463.606 509.187 463.741C509.221 464.11 509.135 464.48 508.94 464.795C508.463 465.73 507.762 466.533 506.9 467.133C506.432 467.448 505.915 467.683 505.37 467.83C505.157 467.865 504.963 467.977 504.826 468.144V468.204C504.803 468.276 504.799 468.353 504.814 468.427C504.829 468.501 504.862 468.571 504.911 468.629C504.974 468.704 505.052 468.765 505.141 468.807C505.583 469.035 506.055 469.201 506.543 469.3C506.833 469.344 507.118 469.418 507.393 469.521L507.487 469.759C507.572 470.014 507.606 470.303 507.699 470.609C507.714 470.652 507.74 470.69 507.774 470.72C507.809 470.75 507.85 470.77 507.895 470.779C508.001 470.823 508.12 470.823 508.226 470.779C508.952 470.602 509.708 470.576 510.445 470.703C511.203 470.984 511.918 471.37 512.57 471.85C513.072 472.201 513.659 472.412 514.27 472.462C514.739 472.492 515.211 472.492 515.68 472.462C516.075 472.423 516.456 472.295 516.794 472.088C517.551 471.655 518.214 471.145 518.953 470.813C519.232 470.748 519.517 470.717 519.803 470.72C520.413 470.697 521.025 470.725 521.63 470.805C521.64 470.809 521.65 470.811 521.66 470.811C521.67 470.811 521.681 470.809 521.69 470.805C521.772 470.795 521.847 470.755 521.903 470.694C521.931 470.656 521.952 470.613 521.962 470.567C521.962 470.473 521.962 470.499 521.962 470.567C521.966 470.55 521.966 470.532 521.962 470.516C522.027 470.213 522.148 469.924 522.319 469.666C522.37 469.621 522.429 469.588 522.494 469.567C522.558 469.547 522.626 469.54 522.693 469.547C523.189 469.468 523.674 469.331 524.138 469.139C524.367 469.064 524.571 468.925 524.725 468.739C524.757 468.693 524.781 468.64 524.792 468.585C524.804 468.529 524.805 468.472 524.794 468.416C524.782 468.36 524.76 468.307 524.728 468.26C524.695 468.214 524.654 468.174 524.605 468.144L524.699 467.991Z" fill="white"/>
<path d="M554.254 492.751H418.211C411.395 492.751 405.869 498.277 405.869 505.093V794.059C405.869 800.876 411.395 806.401 418.211 806.401H554.254C561.07 806.401 566.596 800.876 566.596 794.059V505.093C566.596 498.277 561.07 492.751 554.254 492.751Z" fill="#263238"/>
<mask id="mask0_8408_43" style="mask-type:luminance" maskUnits="userSpaceOnUse" x="405" y="492" width="162" height="315">
<path d="M554.254 492.751H418.211C411.395 492.751 405.869 498.277 405.869 505.093V794.059C405.869 800.876 411.395 806.401 418.211 806.401H554.254C561.07 806.401 566.596 800.876 566.596 794.059V505.093C566.596 498.277 561.07 492.751 554.254 492.751Z" fill="white"/>
</mask>
<g mask="url(#mask0_8408_43)">
<path opacity="0.2" d="M419.716 492.751C416.043 492.751 412.521 494.21 409.925 496.807C407.328 499.404 405.869 502.926 405.869 506.598V792.546C405.867 794.573 406.31 796.575 407.168 798.412C408.026 800.248 409.277 801.873 410.833 803.171L504.605 492.751H419.716Z" fill="white"/>
<path d="M491.685 797.323C491.685 796.242 491.364 795.185 490.763 794.286C490.162 793.387 489.308 792.687 488.309 792.273C487.31 791.86 486.211 791.752 485.15 791.964C484.09 792.175 483.116 792.697 482.352 793.462C481.588 794.227 481.068 795.202 480.858 796.262C480.648 797.323 480.758 798.422 481.173 799.421C481.587 800.419 482.289 801.272 483.189 801.872C484.089 802.471 485.147 802.791 486.228 802.789C486.945 802.789 487.656 802.647 488.318 802.373C488.981 802.098 489.583 801.695 490.09 801.188C490.597 800.68 490.998 800.077 491.272 799.414C491.546 798.751 491.686 798.041 491.685 797.323Z" stroke="white" stroke-linecap="round" stroke-linejoin="round"/>
</g>
<path d="M554.254 492.751H418.211C411.395 492.751 405.869 498.277 405.869 505.093V794.059C405.869 800.876 411.395 806.401 418.211 806.401H554.254C561.07 806.401 566.596 800.876 566.596 794.059V505.093C566.596 498.277 561.07 492.751 554.254 492.751Z" stroke="#263238" stroke-linecap="round" stroke-linejoin="round"/>
<path d="M559.439 514.052H413.009V787.786H559.439V514.052Z" fill="#0393E2" stroke="#263238" stroke-linecap="round" stroke-linejoin="round"/>
<path d="M483.925 732.384C521.006 732.384 551.066 702.323 551.066 665.242C551.066 628.161 521.006 598.101 483.925 598.101C446.843 598.101 416.783 628.161 416.783 665.242C416.783 702.323 446.843 732.384 483.925 732.384Z" fill="#263238"/>
<path d="M554.968 546.905H418.075V578.075H554.968V546.905Z" fill="white"/>
<path d="M554.968 751.56H418.075V782.729H554.968V751.56Z" fill="white"/>
<path d="M554.968 740.722H418.075V742.073H554.968V740.722Z" fill="white"/>
<path d="M554.968 746.816H418.075V748.168H554.968V746.816Z" fill="white"/>
<path d="M554.458 516.891H542.32V523.547H554.458V516.891Z" stroke="#263238" stroke-width="0.821067" stroke-linecap="round" stroke-linejoin="round"/>
<path d="M551.789 516.891H542.32V523.547H551.789V516.891Z" fill="#263238" stroke="#263238" stroke-width="0.725073" stroke-linecap="round" stroke-linejoin="round"/>
<path d="M556.14 518.753H554.432V521.685H556.14V518.753Z" fill="#263238" stroke="#263238" stroke-width="0.725073" stroke-linecap="round" stroke-linejoin="round"/>
<path d="M418.534 518.957H416.307V522.774H418.534V518.957Z" fill="#263238" stroke="#263238" stroke-width="0.883086" stroke-linecap="round" stroke-linejoin="round"/>
<path d="M422.036 517.614H419.809V522.774H422.036V517.614Z" fill="#263238" stroke="#263238" stroke-width="0.883086" stroke-linecap="round" stroke-linejoin="round"/>
<path d="M425.53 516.033H423.303V522.773H425.53V516.033Z" fill="#263238" stroke="#263238" stroke-width="0.883086" stroke-linecap="round" stroke-linejoin="round"/>
<path d="M555.979 527.244H415.372V537.818H555.979V527.244Z" fill="#263238"/>
<mask id="mask1_8408_43" style="mask-type:luminance" maskUnits="userSpaceOnUse" x="419" y="550" width="228" height="180">
<path d="M646.87 550.28H475.714V601.05C465.109 602.41 455.006 606.376 446.308 612.594C437.61 618.811 430.588 627.087 425.87 636.681C421.151 646.275 418.883 656.889 419.268 667.574C419.653 678.258 422.679 688.681 428.076 697.911C433.473 707.141 441.072 714.889 450.194 720.465C459.317 726.041 469.679 729.269 480.354 729.863C491.029 730.456 501.685 728.395 511.37 723.865C521.054 719.334 529.465 712.475 535.851 703.9H646.87V550.28Z" fill="white"/>
</mask>
<g mask="url(#mask1_8408_43)">
<path d="M413.4 728.55C413.4 728.55 431.318 666.16 434.701 652.824C438.084 639.487 443.201 630.809 453.758 628.692C464.315 626.576 483.806 624.612 483.806 624.612C483.806 624.612 500.746 622.912 513.02 623.762C525.294 624.612 536.523 631.174 542.447 635.662C548.372 640.15 565.525 655.561 565.525 655.561L563.408 619.997L578.861 621.263C578.861 621.263 590.081 670.801 591.56 679.913C593.039 689.025 593.048 693.046 591.56 694.1C590.073 695.154 592.623 695.8 579.074 691.346C565.525 686.892 549.647 680.763 540.968 678.222C532.29 675.68 531.227 675.255 531.227 675.255C531.227 675.255 509.977 707.232 503.22 716.761C498.581 723.526 494.456 730.629 490.878 738.011" fill="white"/>
<mask id="mask2_8408_43" style="mask-type:luminance" maskUnits="userSpaceOnUse" x="413" y="619" width="180" height="120">
<path d="M413.4 728.55C413.4 728.55 431.318 666.16 434.701 652.824C438.084 639.487 443.201 630.809 453.758 628.692C464.315 626.576 483.806 624.612 483.806 624.612C483.806 624.612 500.746 622.912 513.02 623.762C525.294 624.612 536.523 631.174 542.447 635.662C548.372 640.15 565.525 655.561 565.525 655.561L563.408 619.997L578.861 621.263C578.861 621.263 590.081 670.801 591.56 679.913C593.039 689.025 593.048 693.046 591.56 694.1C590.073 695.154 592.623 695.8 579.074 691.346C565.525 686.892 549.647 680.763 540.968 678.222C532.29 675.68 531.227 675.255 531.227 675.255C531.227 675.255 509.977 707.232 503.22 716.761C498.581 723.526 494.456 730.629 490.878 738.011" fill="white"/>
</mask>
<g mask="url(#mask2_8408_43)">
<path opacity="0.2" d="M591.535 694.032C593.022 692.978 593.022 688.932 591.535 679.845C590.685 674.414 586.307 654.6 582.941 639.487C584.276 657.337 584.794 674.779 582.091 678.035C576.141 685.073 567.446 675.825 567.446 675.825L565.788 662.106C565.788 662.106 536.157 640.252 525.039 636.546C513.921 632.84 502.089 632.101 490.589 635.807C479.088 639.513 469.475 643.219 462.437 650.257C455.399 657.295 430.987 713.599 430.987 713.599L428.224 730.318L490.852 737.9C494.43 730.519 498.556 723.416 503.194 716.65C509.994 707.122 531.202 675.145 531.202 675.145C531.202 675.145 532.264 675.57 540.943 678.111C549.621 680.653 565.499 686.79 579.048 691.235C592.597 695.681 590.056 695.094 591.535 694.032Z" fill="black"/>
</g>
<path d="M413.4 728.55C413.4 728.55 431.318 666.16 434.701 652.824C438.084 639.487 443.201 630.809 453.758 628.692C464.315 626.576 483.806 624.612 483.806 624.612C483.806 624.612 500.746 622.912 513.02 623.762C525.294 624.612 536.523 631.174 542.447 635.662C548.372 640.15 565.525 655.561 565.525 655.561L563.408 619.997L578.861 621.263C578.861 621.263 590.081 670.801 591.56 679.913C593.039 689.025 593.048 693.046 591.56 694.1C590.073 695.154 592.623 695.8 579.074 691.346C565.525 686.892 549.647 680.763 540.968 678.222C532.29 675.68 531.227 675.255 531.227 675.255C531.227 675.255 509.977 707.232 503.22 716.761C498.581 723.526 494.456 730.629 490.878 738.011" stroke="#263238" stroke-linecap="round" stroke-linejoin="round"/>
<path d="M537.245 665.37L531.202 675.196L549.086 665.37" stroke="#263238" stroke-linecap="round" stroke-linejoin="round"/>
<path d="M565.499 655.501C565.499 655.501 566.349 673.07 567.403 675.824C568.457 678.578 573.124 679.845 573.124 679.845" fill="white"/>
<path d="M565.499 655.501C565.499 655.501 566.349 673.07 567.403 675.824C568.457 678.578 573.124 679.845 573.124 679.845" stroke="#263238" stroke-linecap="round" stroke-linejoin="round"/>
<path d="M472.212 654.966C472.212 654.966 469.9 660.448 471.056 660.448C472.212 660.448 479.717 657.567 483.185 657.567C486.653 657.567 490.402 663.627 490.402 663.627C490.402 663.627 500.508 656.122 503.687 656.989C505.244 657.51 506.672 658.356 507.878 659.471C508.078 659.646 508.325 659.76 508.588 659.801C508.851 659.842 509.121 659.808 509.365 659.702C509.61 659.596 509.819 659.423 509.97 659.203C510.12 658.983 510.205 658.725 510.215 658.459C510.275 656.904 510.326 654.779 510.326 652.076C510.326 645.726 504.843 628.403 494.737 627.536C484.63 626.669 482.896 633.886 478.587 642.547C474.277 651.209 472.212 654.966 472.212 654.966Z" fill="#263238"/>
<path d="M493.946 617.608C493.946 617.608 484.205 618.9 479.76 623.15C475.314 627.4 476.793 634.158 474.464 640.295C472.135 646.432 468.115 658.927 470.214 658.714C472.314 658.502 479.743 652.577 481.859 654.056C483.976 655.535 488.846 661.706 489.696 662.097C490.546 662.488 501.341 654.694 502.82 653.844C504.299 652.994 511.499 662.344 511.711 659.794C511.924 657.244 512.349 642.224 510.861 633.121C509.374 624.017 498.817 617.821 493.946 617.608Z" fill="white" stroke="#263238" stroke-linecap="round" stroke-linejoin="round"/>
<path d="M497.329 605.75C497.329 605.75 493.734 616.758 490.75 620.6C487.767 624.442 486.5 625.045 485.463 633.936C484.426 642.827 489.059 662.938 490.563 662.513C492.068 662.088 506.654 638.807 511.524 634.99C516.395 631.174 521.478 627.162 521.478 627.162C521.478 627.162 509.62 623.558 505.6 618.483C502.561 614.429 499.798 610.175 497.329 605.75Z" fill="white"/>
<mask id="mask3_8408_43" style="mask-type:luminance" maskUnits="userSpaceOnUse" x="485" y="605" width="37" height="58">
<path d="M497.329 605.75C497.329 605.75 493.734 616.758 490.75 620.6C487.767 624.442 486.5 625.045 485.463 633.936C484.426 642.827 489.059 662.938 490.563 662.513C492.068 662.088 506.654 638.807 511.524 634.99C516.395 631.174 521.478 627.162 521.478 627.162C521.478 627.162 509.62 623.558 505.6 618.483C502.561 614.429 499.798 610.175 497.329 605.75Z" fill="white"/>
</mask>
<g mask="url(#mask3_8408_43)">
<path opacity="0.2" d="M513.624 633.35C517.746 630.111 521.469 627.17 521.469 627.17C521.469 627.17 509.612 623.566 505.591 618.492C502.557 614.445 499.797 610.2 497.329 605.784C496.096 609.511 494.657 613.166 493.02 616.732C494.813 621.756 499.811 629.95 513.624 633.35Z" fill="black"/>
<path d="M505.591 618.458C502.557 614.411 499.797 610.166 497.329 605.75C497.329 605.75 496.122 609.448 494.533 613.298C495.85 617.115 498.494 622.793 503.228 626.142C507.056 628.696 511.303 630.56 515.774 631.65L521.469 627.162C521.469 627.162 509.612 623.532 505.591 618.458Z" fill="#263238"/>
</g>
<path d="M497.329 605.75C497.329 605.75 493.734 616.758 490.75 620.6C487.767 624.442 486.5 625.045 485.463 633.936C484.426 642.827 489.059 662.938 490.563 662.513C492.068 662.088 506.654 638.807 511.524 634.99C516.395 631.174 521.478 627.162 521.478 627.162C521.478 627.162 509.62 623.558 505.6 618.483C502.561 614.429 499.798 610.175 497.329 605.75Z" stroke="#263238" stroke-linecap="round" stroke-linejoin="round"/>
<path d="M542.422 577.599C542.422 577.599 541.793 591.785 542.209 596.435C542.626 601.084 544.326 609.185 540.509 616.758C536.693 624.332 533.522 629.253 529.927 630.52C526.331 631.786 514.686 629.253 505.37 622.266C496.054 615.279 494.363 600.889 492.875 596.231C491.388 591.573 493.088 575.695 502.616 570.612C510.331 566.641 519.282 565.806 527.598 568.283C532.689 569.974 542.422 577.599 542.422 577.599Z" fill="white"/>
<mask id="mask4_8408_43" style="mask-type:luminance" maskUnits="userSpaceOnUse" x="492" y="566" width="51" height="65">
<path d="M542.422 577.599C542.422 577.599 541.793 591.785 542.209 596.435C542.626 601.084 544.326 609.185 540.509 616.758C536.693 624.332 533.522 629.253 529.927 630.52C526.331 631.786 514.686 629.253 505.37 622.266C496.054 615.279 494.363 600.889 492.875 596.231C491.388 591.573 493.088 575.695 502.616 570.612C510.331 566.641 519.282 565.806 527.598 568.283C532.689 569.974 542.422 577.599 542.422 577.599Z" fill="white"/>
</mask>
<g mask="url(#mask4_8408_43)">
<path opacity="0.2" d="M502.65 570.612C501.291 571.347 500.06 572.297 499.004 573.425L503.908 576.91C503.908 576.91 510.207 570.612 524.308 579.503C531.584 584.093 537.857 584.832 542.235 584.467C542.337 580.693 542.473 577.599 542.473 577.599C542.473 577.599 532.74 569.949 527.657 568.249C519.329 565.776 510.367 566.622 502.65 570.612Z" fill="black"/>
</g>
<path d="M542.422 577.599C542.422 577.599 541.793 591.785 542.209 596.435C542.626 601.084 544.326 609.185 540.509 616.758C536.693 624.332 533.522 629.253 529.927 630.52C526.331 631.786 514.686 629.253 505.37 622.266C496.054 615.279 494.363 600.889 492.875 596.231C491.388 591.573 493.088 575.695 502.616 570.612C510.331 566.641 519.282 565.806 527.598 568.283C532.689 569.974 542.422 577.599 542.422 577.599Z" stroke="#263238" stroke-linecap="round" stroke-linejoin="round"/>
<path d="M522.43 596.732C522.43 598.237 521.843 599.461 521.121 599.461C520.398 599.461 519.812 598.237 519.812 596.732C519.812 595.228 520.398 593.995 521.121 593.995C521.843 593.995 522.43 595.219 522.43 596.732Z" fill="#263238"/>
<path d="M537.891 598.152C537.891 599.665 537.305 600.889 536.582 600.889C535.86 600.889 535.273 599.665 535.273 598.152C535.273 596.639 535.86 595.423 536.582 595.423C537.305 595.423 537.891 596.647 537.891 598.152Z" fill="#263238"/>
<path d="M533.743 594.114C533.743 594.114 529.723 598.135 530.777 599.826C531.831 601.518 534.296 602.47 533.531 604.926C532.766 607.383 527.181 608.326 525.277 604.926" stroke="#263238" stroke-linecap="round" stroke-linejoin="round"/>
<path d="M513.207 607.238C514.786 609.154 516.755 610.711 518.983 611.806C521.21 612.901 523.646 613.508 526.127 613.588C526.127 613.588 517.44 619.3 513.632 618.688C509.824 618.076 513.207 607.238 513.207 607.238Z" fill="#263238" stroke="#263238" stroke-linecap="round" stroke-linejoin="round"/>
<path d="M515.239 588.657C515.239 588.657 518.928 583.557 526.289 586.728" stroke="#263238" stroke-linecap="round" stroke-linejoin="round"/>
<path d="M535.222 588.819C535.222 588.819 539.88 587.748 541.572 592.219" stroke="#263238" stroke-linecap="round" stroke-linejoin="round"/>
<path d="M494.371 601.943C494.371 601.943 496.275 593.689 500.933 590.723C505.591 587.756 510.037 588.394 507.283 584.373C504.529 580.353 503.033 576.324 508.983 574.42C514.933 572.516 526.552 575.695 533.327 578.236C540.101 580.778 553.225 581.636 556.617 572.091C558.708 566.209 552.588 561.525 548.117 559.12C543.161 556.468 537.602 555.15 532.009 556.136C528.609 556.723 525.371 558.057 521.971 558.397C516.216 558.984 511.142 556.315 505.404 557.7C500.588 558.85 496.277 561.535 493.122 565.35C487.809 571.878 486.322 583.736 494.371 601.943Z" fill="#263238"/>
<mask id="mask5_8408_43" style="mask-type:luminance" maskUnits="userSpaceOnUse" x="488" y="555" width="70" height="47">
<path d="M494.371 601.943C494.371 601.943 496.275 593.689 500.933 590.723C505.591 587.756 510.037 588.394 507.283 584.373C504.529 580.353 503.033 576.324 508.983 574.42C514.933 572.516 526.552 575.695 533.327 578.236C540.101 580.778 553.225 581.636 556.617 572.091C558.708 566.209 552.588 561.525 548.117 559.12C543.161 556.468 537.602 555.15 532.009 556.136C528.609 556.723 525.371 558.057 521.971 558.397C516.216 558.984 511.142 556.315 505.404 557.7C500.588 558.85 496.277 561.535 493.122 565.35C487.809 571.878 486.322 583.736 494.371 601.943Z" fill="white"/>
</mask>
<g mask="url(#mask5_8408_43)">
<path d="M543.39 555.737C543.39 555.737 554.39 561.687 546.689 571.572C538.988 581.458 531.737 574.658 513.471 571.139C495.204 567.62 484.435 576.638 484.435 576.638" stroke="#808080" stroke-linecap="round" stroke-linejoin="round"/>
<path d="M485.973 587.45C485.973 587.45 489.492 580.65 500.933 578.653C512.374 576.655 513.037 578.432 513.037 578.432" stroke="#808080" stroke-linecap="round" stroke-linejoin="round"/>
</g>
<path d="M494.371 601.943C494.371 601.943 496.275 593.689 500.933 590.723C505.591 587.756 510.037 588.394 507.283 584.373C504.529 580.353 503.033 576.324 508.983 574.42C514.933 572.516 526.552 575.695 533.327 578.236C540.101 580.778 553.225 581.636 556.617 572.091C558.708 566.209 552.588 561.525 548.117 559.12C543.161 556.468 537.602 555.15 532.009 556.136C528.609 556.723 525.371 558.057 521.971 558.397C516.216 558.984 511.142 556.315 505.404 557.7C500.588 558.85 496.277 561.535 493.122 565.35C487.809 571.878 486.322 583.736 494.371 601.943Z" stroke="#263238" stroke-linecap="round" stroke-linejoin="round"/>
<path d="M499.157 598.933C499.157 598.933 493.666 586.362 488.829 592.907C483.993 599.452 492.756 607.731 499.335 606.124" fill="white"/>
<path d="M499.157 598.933C499.157 598.933 493.666 586.362 488.829 592.907C483.993 599.452 492.756 607.731 499.335 606.124" stroke="#263238" stroke-linecap="round" stroke-linejoin="round"/>
<path d="M558.937 597.497C558.937 597.497 555.342 597.072 554.687 600.047C554.033 603.022 553.412 607.697 554.687 607.697C555.962 607.697 558.283 607.068 559.133 605.147C559.983 603.226 560.833 597.31 560.833 597.31L558.937 597.497Z" fill="white" stroke="#263238" stroke-linecap="round" stroke-linejoin="round"/>
<path d="M564.649 596.435C564.649 596.435 559.549 595.585 558.937 597.497C558.325 599.41 557.458 605.997 558.087 606.176C558.716 606.354 562.533 604.697 562.533 604.697L564.649 596.435Z" fill="white" stroke="#263238" stroke-linecap="round" stroke-linejoin="round"/>
<path d="M571.424 596.859C571.424 596.859 565.474 593.051 564.02 594.955C562.567 596.859 562.533 604.696 562.533 604.696C563.059 604.813 563.606 604.796 564.124 604.648C564.642 604.499 565.114 604.224 565.499 603.846C566.562 602.58 567.828 600.888 567.828 600.888C567.828 600.888 572.078 601.942 572.699 601.738C573.319 601.534 574.815 601.738 574.399 599.622C573.982 597.505 571.424 596.859 571.424 596.859Z" fill="white" stroke="#263238" stroke-linecap="round" stroke-linejoin="round"/>
<path d="M579.473 600.676C576.801 598.83 574.622 596.358 573.124 593.476C571.007 589.031 569.945 589.227 568.874 591.148C567.803 593.069 569.078 594.956 569.928 596.647C570.778 598.339 574.373 602.368 574.373 602.368L579.473 600.676Z" fill="white" stroke="#263238" stroke-linecap="round" stroke-linejoin="round"/>
<path d="M541.393 630.29C541.393 630.29 538.325 656.496 538.801 657.915C539.277 659.335 544.462 660.984 545.643 660.04C546.825 659.097 546.119 657.21 545.643 656.028C545.167 654.847 549.655 632.891 549.655 632.891L541.393 630.29Z" fill="#0393E2" stroke="#263238" stroke-linecap="round" stroke-linejoin="round"/>
<path d="M464.086 639.368L479.624 687.895C479.624 687.895 515.324 667.104 523.688 656.258C532.052 645.412 536.88 633.18 539.838 632.033C542.796 630.885 553.234 633.733 554.764 635.433C556.294 637.133 555.937 638.994 554.084 640.745C552.231 642.496 551.177 642.743 551.177 642.743C551.177 642.743 551.083 646.559 550.25 647.222C549.417 647.885 549.613 647.027 549.4 647.877C549.255 648.785 548.922 649.654 548.423 650.427C547.811 651.277 547.573 651.719 546.986 651.948C545.768 652.467 544.501 652.86 543.204 653.121C540.919 653.71 538.595 654.136 536.251 654.396C534.78 654.651 525.201 673.581 516.208 684.86C507.215 696.14 478.808 722.005 474.345 722.141C469.883 722.277 443.669 678.978 438.05 668.345" fill="white"/>
<mask id="mask6_8408_43" style="mask-type:luminance" maskUnits="userSpaceOnUse" x="438" y="631" width="118" height="92">
<path d="M464.086 639.368L479.624 687.895C479.624 687.895 515.324 667.104 523.688 656.258C532.052 645.412 536.88 633.18 539.838 632.033C542.796 630.885 553.234 633.733 554.764 635.433C556.294 637.133 555.937 638.994 554.084 640.745C552.231 642.496 551.177 642.743 551.177 642.743C551.177 642.743 551.083 646.559 550.25 647.222C549.417 647.885 549.613 647.027 549.4 647.877C549.255 648.785 548.922 649.654 548.423 650.427C547.811 651.277 547.573 651.719 546.986 651.948C545.768 652.467 544.501 652.86 543.204 653.121C540.919 653.71 538.595 654.136 536.251 654.396C534.78 654.651 525.201 673.581 516.208 684.86C507.215 696.14 478.808 722.005 474.345 722.141C469.883 722.277 443.669 678.978 438.05 668.345" fill="white"/>
</mask>
<g mask="url(#mask6_8408_43)">
<path opacity="0.2" d="M548.423 650.41C548.922 649.637 549.255 648.768 549.4 647.86C549.587 647.01 549.4 647.86 550.25 647.205C551.1 646.551 551.177 642.726 551.177 642.726C551.177 642.726 552.231 642.479 554.084 640.728C555.937 638.977 556.302 637.065 554.764 635.416C553.225 633.767 542.77 630.911 539.838 632.016C539.073 632.313 538.138 633.376 537.118 634.974C538.673 637.524 540.518 639.079 538.818 643.533C536.268 650.333 530.318 658.833 525.218 666.058C520.118 673.283 477.618 713.233 472.518 712.383C468.353 711.686 456.257 697.083 451.956 691.788C461.17 706.569 471.71 722.184 474.388 722.107C478.833 721.971 507.274 696.114 516.25 684.826C525.226 673.538 534.78 654.6 536.251 654.379C538.595 654.119 540.919 653.693 543.204 653.104C544.501 652.843 545.768 652.45 546.986 651.931C547.615 651.702 547.811 651.277 548.423 650.41Z" fill="black"/>
</g>
<path d="M464.086 639.368L479.624 687.895C479.624 687.895 515.324 667.104 523.688 656.258C532.052 645.412 536.88 633.18 539.838 632.033C542.796 630.885 553.234 633.733 554.764 635.433C556.294 637.133 555.937 638.994 554.084 640.745C552.231 642.496 551.177 642.743 551.177 642.743C551.177 642.743 551.083 646.559 550.25 647.222C549.417 647.885 549.613 647.027 549.4 647.877C549.255 648.785 548.922 649.654 548.423 650.427C547.811 651.277 547.573 651.719 546.986 651.948C545.768 652.467 544.501 652.86 543.204 653.121C540.919 653.71 538.595 654.136 536.251 654.396C534.78 654.651 525.201 673.581 516.208 684.86C507.215 696.14 478.808 722.005 474.345 722.141C469.883 722.277 443.669 678.978 438.05 668.345" stroke="#263238" stroke-linecap="round" stroke-linejoin="round"/>
<path d="M479.624 687.895C479.624 687.895 475.552 688.065 472.101 698.945" stroke="#263238" stroke-linecap="round" stroke-linejoin="round"/>
<path d="M543.204 653.104C544.501 652.843 545.768 652.45 546.986 651.931C547.615 651.702 547.836 651.277 548.423 650.41C548.922 649.637 549.255 648.768 549.4 647.86C549.587 647.01 550.14 646.721 550.964 646.058C551.789 645.395 551.151 642.726 551.151 642.726C551.151 642.726 552.205 642.479 554.058 640.728C555.911 638.977 556.277 637.065 554.738 635.416C553.2 633.767 542.745 630.911 539.812 632.016C536.88 633.121 532.443 644.4 524.75 654.881L531.907 660.746C534.151 657.006 535.749 654.473 536.276 654.379C538.612 654.118 540.927 653.692 543.204 653.104Z" fill="white"/>
<mask id="mask7_8408_43" style="mask-type:luminance" maskUnits="userSpaceOnUse" x="524" y="631" width="32" height="30">
<path d="M543.204 653.104C544.501 652.843 545.768 652.45 546.986 651.931C547.615 651.702 547.836 651.277 548.423 650.41C548.922 649.637 549.255 648.768 549.4 647.86C549.587 647.01 550.14 646.721 550.964 646.058C551.789 645.395 551.151 642.726 551.151 642.726C551.151 642.726 552.205 642.479 554.058 640.728C555.911 638.977 556.277 637.065 554.738 635.416C553.2 633.767 542.745 630.911 539.812 632.016C536.88 633.121 532.443 644.4 524.75 654.881L531.907 660.746C534.151 657.006 535.749 654.473 536.276 654.379C538.612 654.118 540.927 653.692 543.204 653.104Z" fill="white"/>
</mask>
<g mask="url(#mask7_8408_43)">
<path opacity="0.2" d="M548.423 650.41C548.922 649.637 549.255 648.768 549.4 647.86C549.587 647.01 549.4 647.86 550.25 647.205C551.1 646.551 551.177 642.726 551.177 642.726C551.177 642.726 552.231 642.479 554.084 640.728C555.937 638.977 556.302 637.065 554.764 635.416C553.225 633.767 542.77 630.911 539.838 632.016C539.073 632.313 538.138 633.376 537.118 634.974C538.673 637.524 540.518 639.079 538.818 643.533C536.268 650.333 530.318 658.833 525.218 666.058C520.118 673.283 477.618 713.233 472.518 712.383C468.353 711.686 456.257 697.083 451.956 691.788C461.17 706.569 471.71 722.184 474.388 722.107C478.833 721.971 507.274 696.114 516.25 684.826C525.226 673.538 534.78 654.6 536.251 654.379C538.595 654.119 540.919 653.693 543.204 653.104C544.501 652.843 545.768 652.45 546.986 651.931C547.615 651.702 547.811 651.277 548.423 650.41Z" fill="black"/>
</g>
<path d="M543.204 653.104C544.501 652.843 545.768 652.45 546.986 651.931C547.615 651.702 547.836 651.277 548.423 650.41C548.922 649.637 549.255 648.768 549.4 647.86C549.587 647.01 550.14 646.721 550.964 646.058C551.789 645.395 551.151 642.726 551.151 642.726C551.151 642.726 552.205 642.479 554.058 640.728C555.911 638.977 556.277 637.065 554.738 635.416C553.2 633.767 542.745 630.911 539.812 632.016C536.88 633.121 532.443 644.4 524.75 654.881L531.907 660.746C534.151 657.006 535.749 654.473 536.276 654.379C538.612 654.118 540.927 653.692 543.204 653.104Z" stroke="#263238" stroke-linecap="round" stroke-linejoin="round"/>
<path d="M533.956 613.163C531.618 613.163 529.706 616.563 529.706 620.677C529.706 624.791 531.601 628.191 533.956 628.191L585.806 643.856V596.86L533.956 613.163Z" fill="#0393E2" stroke="#263238" stroke-linecap="round" stroke-linejoin="round"/>
<path d="M563.128 606.906L542.898 612.729" stroke="#263238" stroke-linecap="round" stroke-linejoin="round"/>
<path d="M569.894 604.96L565.661 606.184" stroke="#263238" stroke-linecap="round" stroke-linejoin="round"/>
<path d="M540.594 611.072L533.956 613.163C531.618 613.163 529.706 616.563 529.706 620.677C529.706 624.791 531.601 628.191 533.956 628.191L539.948 630.001C538.539 627.023 537.863 623.751 537.975 620.458C538.088 617.165 538.986 613.947 540.594 611.072Z" fill="#263238" stroke="#263238" stroke-linecap="round" stroke-linejoin="round"/>
<path d="M590.268 652.237C600.089 652.237 608.05 638.107 608.05 620.676C608.05 603.246 600.089 589.116 590.268 589.116C580.447 589.116 572.486 603.246 572.486 620.676C572.486 638.107 580.447 652.237 590.268 652.237Z" fill="#D6D6D6" stroke="#263238" stroke-linecap="round" stroke-linejoin="round"/>
<path d="M590.268 613.673L573.328 609.142L571.849 621.212L573.753 633.486L590.268 627.681L590.905 614.013" fill="#D6D6D6"/>
<path d="M590.268 613.673L573.328 609.142L571.849 621.212L573.753 633.486L590.268 627.681L590.905 614.013" stroke="#263238" stroke-linecap="round" stroke-linejoin="round"/>
<path d="M590.268 586.277C579.566 586.277 570.888 601.679 570.888 620.677C570.888 639.674 579.566 655.076 590.268 655.076C600.969 655.076 609.648 639.674 609.648 620.677C609.648 601.679 600.969 586.277 590.268 586.277ZM590.744 650.197C581.828 650.197 574.594 636.98 574.594 620.677C574.594 604.374 581.828 591.165 590.744 591.165C599.661 591.165 606.894 604.374 606.894 620.677C606.894 636.98 599.669 650.197 590.744 650.197Z" fill="#263238" stroke="#263238" stroke-linecap="round" stroke-linejoin="round"/>
<path d="M590.268 627.681C592.446 627.681 594.212 624.545 594.212 620.677C594.212 616.808 592.446 613.673 590.268 613.673C588.09 613.673 586.324 616.808 586.324 620.677C586.324 624.545 588.09 627.681 590.268 627.681Z" fill="#0393E2" stroke="#263238" stroke-linecap="round" stroke-linejoin="round"/>
<path d="M612.071 593.715L635.395 586.49" stroke="#263238" stroke-linecap="round" stroke-linejoin="round"/>
<path d="M615.131 618.943L636.534 619.708" stroke="#263238" stroke-linecap="round" stroke-linejoin="round"/>
<path d="M632.862 650.384L637.299 651.812" stroke="#263238" stroke-linecap="round" stroke-linejoin="round"/>
<path d="M613.601 644.171L629.343 649.254" stroke="#263238" stroke-linecap="round" stroke-linejoin="round"/>
<path d="M614.366 605.181L625.832 603.651" stroke="#263238" stroke-linecap="round" stroke-linejoin="round"/>
<path d="M609.011 652.577L617.426 659.462" stroke="#263238" stroke-linecap="round" stroke-linejoin="round"/>
</g>
</g>
<path d="M212.351 756.894C212.331 756.762 212.151 756.641 211.869 756.571C211.572 756.497 203.317 754.57 202.981 754.492C202.923 754.476 202.41 754.339 202.14 754.54C201.897 754.72 202.083 754.96 202.107 754.989L203.081 756.128C202.857 756.37 202.029 757.264 201.855 757.457C201.747 757.577 201.62 757.743 201.719 757.85C201.796 757.949 201.964 757.996 202.106 758.006L203.834 758.049L204.166 759.536L204.18 759.568C204.236 759.65 204.309 759.717 204.399 759.77C204.469 759.81 204.548 759.841 204.638 759.863C204.945 759.938 205.237 759.869 205.27 759.861L211.942 757.263C212.306 757.13 212.366 756.989 212.351 756.894ZM204.181 756.993L202.372 757.464L203.514 756.23L210.112 756.822L204.181 756.993Z" fill="white"/>
</g>
<defs>
<filter id="filter0_dddddd_8408_43" x="482.789" y="679.605" width="170.49" height="118.711" filterUnits="userSpaceOnUse" color-interpolation-filters="sRGB">
<feFlood flood-opacity="0" result="BackgroundImageFix"/>
<feColorMatrix in="SourceAlpha" type="matrix" values="0 0 0 0 0 0 0 0 0 0 0 0 0 0 0 0 0 0 127 0" result="hardAlpha"/>
<feOffset dy="0.31491"/>
<feGaussianBlur stdDeviation="0.472013"/>
<feColorMatrix type="matrix" values="0 0 0 0 0 0 0 0 0 0 0 0 0 0 0 0 0 0 0.01 0"/>
<feBlend mode="normal" in2="BackgroundImageFix" result="effect1_dropShadow_8408_43"/>
<feColorMatrix in="SourceAlpha" type="matrix" values="0 0 0 0 0 0 0 0 0 0 0 0 0 0 0 0 0 0 127 0" result="hardAlpha"/>
<feOffset dy="1.3856"/>
<feGaussianBlur stdDeviation="0.977346"/>
<feColorMatrix type="matrix" values="0 0 0 0 0 0 0 0 0 0 0 0 0 0 0 0 0 0 0.02 0"/>
<feBlend mode="normal" in2="effect1_dropShadow_8408_43" result="effect2_dropShadow_8408_43"/>
<feColorMatrix in="SourceAlpha" type="matrix" values="0 0 0 0 0 0 0 0 0 0 0 0 0 0 0 0 0 0 127 0" result="hardAlpha"/>
<feOffset dy="3.40103"/>
<feGaussianBlur stdDeviation="1.94914"/>
<feColorMatrix type="matrix" values="0 0 0 0 0 0 0 0 0 0 0 0 0 0 0 0 0 0 0.03 0"/>
<feBlend mode="normal" in2="effect2_dropShadow_8408_43" result="effect3_dropShadow_8408_43"/>
<feColorMatrix in="SourceAlpha" type="matrix" values="0 0 0 0 0 0 0 0 0 0 0 0 0 0 0 0 0 0 127 0" result="hardAlpha"/>
<feOffset dy="6.55013"/>
<feGaussianBlur stdDeviation="3.82053"/>
<feColorMatrix type="matrix" values="0 0 0 0 0 0 0 0 0 0 0 0 0 0 0 0 0 0 0.04 0"/>
<feBlend mode="normal" in2="effect3_dropShadow_8408_43" result="effect4_dropShadow_8408_43"/>
<feColorMatrix in="SourceAlpha" type="matrix" values="0 0 0 0 0 0 0 0 0 0 0 0 0 0 0 0 0 0 127 0" result="hardAlpha"/>
<feOffset dy="11.0218"/>
<feGaussianBlur stdDeviation="7.02467"/>
<feColorMatrix type="matrix" values="0 0 0 0 0 0 0 0 0 0 0 0 0 0 0 0 0 0 0.05 0"/>
<feBlend mode="normal" in2="effect4_dropShadow_8408_43" result="effect5_dropShadow_8408_43"/>
<feColorMatrix in="SourceAlpha" type="matrix" values="0 0 0 0 0 0 0 0 0 0 0 0 0 0 0 0 0 0 127 0" result="hardAlpha"/>
<feOffset dy="17.0051"/>
<feGaussianBlur stdDeviation="11.9947"/>
<feColorMatrix type="matrix" values="0 0 0 0 0 0 0 0 0 0 0 0 0 0 0 0 0 0 0.07 0"/>
<feBlend mode="normal" in2="effect5_dropShadow_8408_43" result="effect6_dropShadow_8408_43"/>
<feBlend mode="normal" in="SourceGraphic" in2="effect6_dropShadow_8408_43" result="shape"/>
</filter>
<filter id="filter1_dddddd_8408_43" x="417.653" y="717.108" width="170.49" height="118.711" filterUnits="userSpaceOnUse" color-interpolation-filters="sRGB">
<feFlood flood-opacity="0" result="BackgroundImageFix"/>
<feColorMatrix in="SourceAlpha" type="matrix" values="0 0 0 0 0 0 0 0 0 0 0 0 0 0 0 0 0 0 127 0" result="hardAlpha"/>
<feOffset dy="0.31491"/>
<feGaussianBlur stdDeviation="0.472013"/>
<feColorMatrix type="matrix" values="0 0 0 0 0 0 0 0 0 0 0 0 0 0 0 0 0 0 0.01 0"/>
<feBlend mode="normal" in2="BackgroundImageFix" result="effect1_dropShadow_8408_43"/>
<feColorMatrix in="SourceAlpha" type="matrix" values="0 0 0 0 0 0 0 0 0 0 0 0 0 0 0 0 0 0 127 0" result="hardAlpha"/>
<feOffset dy="1.3856"/>
<feGaussianBlur stdDeviation="0.977346"/>
<feColorMatrix type="matrix" values="0 0 0 0 0 0 0 0 0 0 0 0 0 0 0 0 0 0 0.02 0"/>
<feBlend mode="normal" in2="effect1_dropShadow_8408_43" result="effect2_dropShadow_8408_43"/>
<feColorMatrix in="SourceAlpha" type="matrix" values="0 0 0 0 0 0 0 0 0 0 0 0 0 0 0 0 0 0 127 0" result="hardAlpha"/>
<feOffset dy="3.40103"/>
<feGaussianBlur stdDeviation="1.94914"/>
<feColorMatrix type="matrix" values="0 0 0 0 0 0 0 0 0 0 0 0 0 0 0 0 0 0 0.03 0"/>
<feBlend mode="normal" in2="effect2_dropShadow_8408_43" result="effect3_dropShadow_8408_43"/>
<feColorMatrix in="SourceAlpha" type="matrix" values="0 0 0 0 0 0 0 0 0 0 0 0 0 0 0 0 0 0 127 0" result="hardAlpha"/>
<feOffset dy="6.55013"/>
<feGaussianBlur stdDeviation="3.82053"/>
<feColorMatrix type="matrix" values="0 0 0 0 0 0 0 0 0 0 0 0 0 0 0 0 0 0 0.04 0"/>
<feBlend mode="normal" in2="effect3_dropShadow_8408_43" result="effect4_dropShadow_8408_43"/>
<feColorMatrix in="SourceAlpha" type="matrix" values="0 0 0 0 0 0 0 0 0 0 0 0 0 0 0 0 0 0 127 0" result="hardAlpha"/>
<feOffset dy="11.0218"/>
<feGaussianBlur stdDeviation="7.02467"/>
<feColorMatrix type="matrix" values="0 0 0 0 0 0 0 0 0 0 0 0 0 0 0 0 0 0 0.05 0"/>
<feBlend mode="normal" in2="effect4_dropShadow_8408_43" result="effect5_dropShadow_8408_43"/>
<feColorMatrix in="SourceAlpha" type="matrix" values="0 0 0 0 0 0 0 0 0 0 0 0 0 0 0 0 0 0 127 0" result="hardAlpha"/>
<feOffset dy="17.0051"/>
<feGaussianBlur stdDeviation="11.9947"/>
<feColorMatrix type="matrix" values="0 0 0 0 0 0 0 0 0 0 0 0 0 0 0 0 0 0 0.07 0"/>
<feBlend mode="normal" in2="effect5_dropShadow_8408_43" result="effect6_dropShadow_8408_43"/>
<feBlend mode="normal" in="SourceGraphic" in2="effect6_dropShadow_8408_43" result="shape"/>
</filter>
<linearGradient id="paint0_linear_8408_43" x1="501.37" y1="706.95" x2="642.877" y2="739.974" gradientUnits="userSpaceOnUse">
<stop stop-color="#D7D7D7"/>
<stop offset="1" stop-color="#E7E7E7"/>
</linearGradient>
<linearGradient id="paint1_linear_8408_43" x1="582.559" y1="704.462" x2="579.153" y2="734.62" gradientUnits="userSpaceOnUse">
<stop stop-color="#E0E2E8"/>
<stop offset="1" stop-color="#CDD0D6"/>
</linearGradient>
<linearGradient id="paint2_linear_8408_43" x1="436.234" y1="744.453" x2="577.741" y2="777.476" gradientUnits="userSpaceOnUse">
<stop stop-color="#D7D7D7"/>
<stop offset="1" stop-color="#E7E7E7"/>
</linearGradient>
<linearGradient id="paint3_linear_8408_43" x1="517.424" y1="741.964" x2="514.018" y2="772.122" gradientUnits="userSpaceOnUse">
<stop stop-color="#E0E2E8"/>
<stop offset="1" stop-color="#CDD0D6"/>
</linearGradient>
<clipPath id="clip0_8408_43">
<rect width="636" height="810" fill="white"/>
</clipPath>
</defs>
</svg>
